<svg id="Capa_1" data-name="Capa 1" xmlns="http://www.w3.org/2000/svg" viewBox="0 0 30.8 30.8"><defs><style>.cls-1{fill:#404040;}</style></defs><title>icon-clicks</title><g id="ranking"><path class="cls-1" d="M150.4,148.8a17.9,17.9,0,0,1-1.1-4,13.2,13.2,0,0,0-1.6-4.7c-1.6-2.8-3.4-2.4-3.4-2.4h-0.4a0.5,0.5,0,0,0,.1,1h0.5c0.1,0,1.2-.2,2.4,1.9a12.5,12.5,0,0,1,1.4,4.4,18.8,18.8,0,0,0,1.2,4.2,0.5,0.5,0,0,0,.4.3h0.2A0.5,0.5,0,0,0,150.4,148.8Z" transform="translate(-119.6 -123)"/><path class="cls-1" d="M143.5,138.8a1.5,1.5,0,0,0-1.4-.7h-1.4a0.5,0.5,0,0,0,.1,1h1.4a0.5,0.5,0,0,1,.5.3l1.4,2.3,0.4,0.2h0.3a0.5,0.5,0,0,0,.2-0.7Z" transform="translate(-119.6 -123)"/><path class="cls-1" d="M137.6,139.8H138l1.1-.2a0.4,0.4,0,0,1,.5.2l1.5,2.5,0.4,0.2h0.3a0.5,0.5,0,0,0,.2-0.7l-1.5-2.5a1.4,1.4,0,0,0-1.4-.7l-1.1.2h-0.3a0.5,0.5,0,0,0-.4.6A0.5,0.5,0,0,0,137.6,139.8Z" transform="translate(-119.6 -123)"/><path class="cls-1" d="M133.9,147.2c-0.3-.1-1.4-0.7-1.1-1.4a1.4,1.4,0,0,1,1.5-.6,7.3,7.3,0,0,1,1.9.5,0.5,0.5,0,0,0,.6-0.7l-5.5-9a1,1,0,1,1,1.7-1l4.9,7.9a0.5,0.5,0,0,0,.8-0.5l-4.9-7.9a1.9,1.9,0,1,0-3.3,2l4.8,7.9-0.9-.2a2.2,2.2,0,0,0-2.5,1.3c-0.4,1,.3,2.1,1.6,2.7a34.7,34.7,0,0,1,9,5.6h0.3l0.4-.2a0.5,0.5,0,0,0,0-.7A35.1,35.1,0,0,0,133.9,147.2Z" transform="translate(-119.6 -123)"/><path class="cls-1" d="M141.7,131a0.5,0.5,0,0,0-.4-0.3l-7.1-1-3.2-6.4a0.5,0.5,0,0,0-.9,0l-3.2,6.4-7.1,1a0.5,0.5,0,0,0-.3.8l5.1,5-1.2,7a0.5,0.5,0,0,0,.2.5h0.5l6.6-3.4-0.5-.8-5.7,3,1.1-6.3a0.5,0.5,0,0,0-.1-0.4l-4.6-4.5,6.3-.9,0.4-.3,2.8-5.8,2.9,5.8,0.4,0.3,6.3,0.9-4.1,4,0.5,0.8,4.9-4.8A0.5,0.5,0,0,0,141.7,131Z" transform="translate(-119.6 -123)"/></g></svg>