<svg id="Capa_1" data-name="Capa 1" xmlns="http://www.w3.org/2000/svg" viewBox="0 0 30.8 30.8"><defs><style>.cls-1{fill:#404040;}</style></defs><title>icon-expert</title><g id="word_of_mouth" data-name="word of mouth"><path class="cls-1" d="M188.7,153.2c0-.1-0.2-3.3-2.1-4.4l-2.1-1.1H184a3.8,3.8,0,0,1-4.4,0h-0.5l-2.1,1.1c-1.9,1.1-2.1,4.3-2.1,4.4v0.5h1v-0.5c0.1-.8.5-2.9,1.6-3.7l1.9-1a4.7,4.7,0,0,0,5,0l1.8,1c1.4,0.9,1.6,3.6,1.6,3.7v0.5h1v-0.5Z" transform="translate(-166.4 -123)"/><path class="cls-1" d="M178.4,151.8a0.5,0.5,0,0,0-.5.5v1.5h1v-1.5A0.5,0.5,0,0,0,178.4,151.8Z" transform="translate(-166.4 -123)"/><path class="cls-1" d="M185.2,151.8a0.5,0.5,0,0,0-.5.5v1.5h1v-1.5A0.5,0.5,0,0,0,185.2,151.8Z" transform="translate(-166.4 -123)"/><path class="cls-1" d="M181.7,146.9a3.3,3.3,0,1,0-3.3-3.3A3.3,3.3,0,0,0,181.7,146.9Zm0-5.6a2.3,2.3,0,1,1-2.3,2.3A2.3,2.3,0,0,1,181.7,141.3Z" transform="translate(-166.4 -123)"/><path class="cls-1" d="M171.2,147.7h-0.5l-2.1,1.1c-1.9,1.1-2.1,4.3-2.1,4.4v0.5h1v-0.5c0.1-.8.4-2.9,1.6-3.7l1.9-1a4.7,4.7,0,0,0,3.5.6,5.5,5.5,0,0,1,1.2-1.5h-0.1A3.8,3.8,0,0,1,171.2,147.7Z" transform="translate(-166.4 -123)"/><path class="cls-1" d="M169.9,151.8a0.5,0.5,0,0,0-.5.5v1.5h1v-1.5A0.5,0.5,0,0,0,169.9,151.8Z" transform="translate(-166.4 -123)"/><path class="cls-1" d="M173.3,140.3a3.3,3.3,0,1,0,3.3,3.3A3.3,3.3,0,0,0,173.3,140.3Zm0,5.6a2.3,2.3,0,1,1,2.3-2.3A2.3,2.3,0,0,1,173.3,145.9Z" transform="translate(-166.4 -123)"/><path class="cls-1" d="M197.2,153.2c0-.1-0.2-3.3-2.1-4.4l-2.1-1.1h-0.5a3.8,3.8,0,0,1-4.3,0H188a5.5,5.5,0,0,1,1.2,1.5,4.7,4.7,0,0,0,3.5-.6l1.8,1c1.4,0.9,1.6,3.6,1.6,3.7v0.5h1v-0.5Z" transform="translate(-166.4 -123)"/><path class="cls-1" d="M193.7,151.8a0.5,0.5,0,0,0-.5.5v1.5h1v-1.5A0.5,0.5,0,0,0,193.7,151.8Z" transform="translate(-166.4 -123)"/><path class="cls-1" d="M193.4,143.6a3.3,3.3,0,1,0-3.3,3.3A3.3,3.3,0,0,0,193.4,143.6Zm-5.6,0a2.3,2.3,0,1,1,2.3,2.3A2.3,2.3,0,0,1,187.8,143.6Z" transform="translate(-166.4 -123)"/><path class="cls-1" d="M193,123H170.6a4.2,4.2,0,0,0-4.2,4.2v4.1a4.2,4.2,0,0,0,4,4.2l1.3,3,0.4,0.3h0.1l0.4-.2,2.9-3.2h4.1l1.8,3.1a0.5,0.5,0,0,0,.8,0l1.8-3.1h4.8l2.3,3.1,0.4,0.2a0.5,0.5,0,0,0,.4-0.3l1.3-3a4.2,4.2,0,0,0,4-4.2v-4.1A4.2,4.2,0,0,0,193,123Zm3.2,8.3a3.2,3.2,0,0,1-3.2,3.2h-0.1a0.5,0.5,0,0,0-.4.3l-1.1,2.6-1.9-2.6-0.4-.2h-5.3l-0.4.2-1.5,2.6-1.5-2.6-0.4-.2h-4.6l-0.4.2-2.6,2.8-1.1-2.7a0.5,0.5,0,0,0-.4-0.3h-0.1a3.2,3.2,0,0,1-3.2-3.2v-4.1a3.2,3.2,0,0,1,3.2-3.2H193a3.2,3.2,0,0,1,3.2,3.2v4.1Z" transform="translate(-166.4 -123)"/></g></svg>