<svg id="Layer_1" data-name="Layer 1" xmlns="http://www.w3.org/2000/svg" viewBox="0 0 47.9 45.7"><title>icon-process</title><path d="M179.6,187.4h-5l-0.9-4.1-2.3-.9-3.6,2.4-3.6-3.6,2.3-3.5a11.8,11.8,0,0,1-1-2.3l-4.2-.9v-5l4.1-.9a11.8,11.8,0,0,1,.9-2.3l-2.4-3.6,3.6-3.6,3.5,2.3,2.3-1,0.9-4.2h5l0.9,4.1,2.3,0.9,3.6-2.4,3.6,3.6-2.3,3.5a11.8,11.8,0,0,1,1,2.3l4.2,0.9v5l-4.1.9a11.8,11.8,0,0,1-.9,2.3l2.4,3.6-3.6,3.6-3.5-2.3-2.3,1Zm-4-1.2h3l0.8-4h0.4a10.6,10.6,0,0,0,2.7-1.1l0.3-.2,3.3,2.2,2.2-2.2-2.2-3.4,0.2-.3a10.6,10.6,0,0,0,1.1-2.7v-0.4l3.9-.8v-3l-4-.8V169a10.6,10.6,0,0,0-1.1-2.7L186,166l2.2-3.3-2.2-2.2-3.4,2.2-0.3-.2a10.6,10.6,0,0,0-2.7-1.1h-0.4l-0.8-3.9h-3l-0.8,4h-0.4a10.6,10.6,0,0,0-2.7,1.1l-0.3.2-3.3-2.2-2.2,2.2,2.2,3.4-0.2.3a10.6,10.6,0,0,0-1.1,2.7v0.4l-3.9.8v3l4,0.8v0.4a10.6,10.6,0,0,0,1.1,2.7l0.2,0.3-2.2,3.3,2.2,2.2,3.4-2.2,0.3,0.2a10.6,10.6,0,0,0,2.7,1.1h0.4Zm1.5-8.2a6.2,6.2,0,1,1,6.2-6.2A6.2,6.2,0,0,1,177.1,178Zm0-11.3a5,5,0,1,0,5,5A5,5,0,0,0,177.1,166.7Z" transform="translate(-153.2 -149.2)"/><path d="M156.5,180.6a0.6,0.6,0,0,1-.6-0.4,22.6,22.6,0,0,1,35.4-25.7,0.6,0.6,0,1,1-.8.9,21.3,21.3,0,0,0-33.5,24.4,0.6,0.6,0,0,1-.3.8h-0.2Z" transform="translate(-153.2 -149.2)"/><path d="M157.4,182.2l-4-3.4a0.6,0.6,0,0,1,.8-0.9l2.3,2,0.5-3.2a0.6,0.6,0,0,1,1.2.2Z" transform="translate(-153.2 -149.2)"/><path d="M177,195a22.6,22.6,0,0,1-15.2-5.9,0.6,0.6,0,1,1,.8-0.9,21.3,21.3,0,0,0,34.6-22.7,0.6,0.6,0,0,1,1.1-.4A22.6,22.6,0,0,1,177,195Z" transform="translate(-153.2 -149.2)"/><path d="M196.6,169h-0.1a0.6,0.6,0,0,1-.5-0.7l1.1-5.3,3.8,3.6a0.6,0.6,0,0,1-.8.9l-2.2-2.1-0.6,3.1A0.6,0.6,0,0,1,196.6,169Z" transform="translate(-153.2 -149.2)"/></svg>