<svg id="icon" xmlns="http://www.w3.org/2000/svg" viewBox="0 0 50 50"><defs><style>.cls-1{fill:#4d4d4d;}</style></defs><title>icon-update</title><polygon class="cls-1" points="18 32 14 32 14 28 12 28 12 32 8 32 8 34 12 34 12 38 14 38 14 34 18 34 18 32"/><rect class="cls-1" x="32" y="16" width="10" height="2"/><path class="cls-1" d="M372,136.4V127h5l-8-11-8,11h5v9.4A13,13,0,1,0,372,136.4ZM369,160a11,11,0,0,1-2.5-21.7l1.5-.4V125h-3.1l4.1-5.6,4.1,5.6H370v12.9l1.5,0.4A11,11,0,0,1,369,160Z" transform="translate(-356 -116)"/><path class="cls-1" d="M390,145.6V155h-5l8,11,8-11h-5v-9.4A13,13,0,1,0,390,145.6Zm3-23.6a11,11,0,0,1,2.5,21.7l-1.5.4V157h3.1l-4.1,5.6-4.1-5.6H392V144.1l-1.5-.4A11,11,0,0,1,393,122Z" transform="translate(-356 -116)"/></svg>