<svg id="Capa_1" data-name="Capa 1" xmlns="http://www.w3.org/2000/svg" viewBox="0 0 30.8 30.8"><defs><style>.cls-1{fill:#404040;}</style></defs><title>icon-websites</title><g id="contact_form" data-name="contact form"><circle class="cls-1" cx="3.8" cy="3.4" r="1"/><circle class="cls-1" cx="7.2" cy="3.4" r="1"/><circle class="cls-1" cx="10.6" cy="3.4" r="1"/><path class="cls-1" d="M98.8,179.9H77.6a0.5,0.5,0,0,0,0,1H98.8A0.5,0.5,0,0,0,98.8,179.9Z" transform="translate(-72.8 -169.8)"/><path class="cls-1" d="M87.7,183.3H77.6a0.5,0.5,0,0,0,0,1H87.7A0.5,0.5,0,0,0,87.7,183.3Z" transform="translate(-72.8 -169.8)"/><path class="cls-1" d="M101.2,169.8h-26a2.4,2.4,0,0,0-2.4,2.4v22.6a2.4,2.4,0,0,0,2.4,2.4H95.8l-0.8-1H75.2a1.4,1.4,0,0,1-1.4-1.4V176.5h28.9v17.7l1,1.2V172.2A2.4,2.4,0,0,0,101.2,169.8Zm1.4,5.8H73.8v-3.4a1.4,1.4,0,0,1,1.4-1.4h26a1.4,1.4,0,0,1,1.4,1.4v3.4Z" transform="translate(-72.8 -169.8)"/><path class="cls-1" d="M103.1,197.1l-9.3-11.3H93.6L90,183.9a0.5,0.5,0,0,0-.7.6l1,3.9v0.2l7.7,9.3h0l1.7,2A2.2,2.2,0,1,0,103.1,197.1Zm-0.9,2.3a1.2,1.2,0,0,1-1.7-.2l-1.4-1.7,0.8-.7a0.5,0.5,0,1,0-.6-0.7l-0.8.7L91.2,188l-0.7-2.8,2.6,1.2,9.3,11.2A1.2,1.2,0,0,1,102.2,199.4Z" transform="translate(-72.8 -169.8)"/></g></svg>