<svg id="Capa_1" data-name="Capa 1" xmlns="http://www.w3.org/2000/svg" viewBox="0 0 30.8 30.8"><defs><style>.cls-1{fill:#404040;}</style></defs><title>icon-members</title><g id="video"><path class="cls-1" d="M232,152.4a0.8,0.8,0,0,0,.2.5h-7.1a0.8,0.8,0,0,0,.2-0.5v-1h-1v0.9l-1.1.6a0.5,0.5,0,0,0,.2.9h10.6a0.5,0.5,0,0,0,.1-1l-1.1-.5v-1h-1v1Z" transform="translate(-213.2 -123)"/><path class="cls-1" d="M243,148a1.4,1.4,0,0,1-1.4,1.4h-26a1.4,1.4,0,0,1-1.4-1.4V127.8a1.4,1.4,0,0,1,1.4-1.4h10.2v-1H215.6a2.4,2.4,0,0,0-2.4,2.4V148a2.4,2.4,0,0,0,2.4,2.4h26A2.4,2.4,0,0,0,244,148V135.1l-1,.5V148Z" transform="translate(-213.2 -123)"/><path class="cls-1" d="M240.6,143.7a1.1,1.1,0,0,1-1.1,1.1H217.7a1.1,1.1,0,0,1-1.1-1.1V129.9a1.1,1.1,0,0,1,1.1-1.1h8.1v-1h-8.1a2.1,2.1,0,0,0-2.1,2.1v13.8a2.1,2.1,0,0,0,2.1,2.1h21.8a2.1,2.1,0,0,0,2.1-2.1v-8h-1v8Z" transform="translate(-213.2 -123)"/><circle class="cls-1" cx="18.8" cy="5.6" r="1"/><circle class="cls-1" cx="22.4" cy="5.6" r="1"/><circle class="cls-1" cx="26" cy="5.6" r="1"/><path class="cls-1" d="M242.1,123H229.2a2,2,0,0,0-1.9,1.9v4.3l1,0.6v-4.8a1,1,0,0,1,1-1h12.8a1,1,0,0,1,1,1v7.4a1,1,0,0,1-1,1h-7l-3.2,2.9v-2.6a0.5,0.5,0,0,0-.5-0.5h-1a5.4,5.4,0,0,1,.1.7v0.2h0.5v3.2a0.5,0.5,0,0,0,.3.4h0.5l3.9-3.5h6.4a2,2,0,0,0,1.9-1.9v-7.4A2,2,0,0,0,242.1,123Z" transform="translate(-213.2 -123)"/><path class="cls-1" d="M233.4,145.1c0-.2-0.3-3.9-2.5-5.2l-2.5-1.4h-0.5a4.6,4.6,0,0,1-5.3,0h-0.5l-2.6,1.4c-2.2,1.3-2.5,5.1-2.5,5.2v0.5h1v-0.5s0.3-3.4,2-4.4l2.3-1.2a5.6,5.6,0,0,0,5.9,0l2.3,1.2c1.7,1.1,2,4.4,2,4.5v0.5h1v-0.5Z" transform="translate(-213.2 -123)"/><path class="cls-1" d="M225.1,137.9a3.8,3.8,0,1,0-3.8-3.8A3.8,3.8,0,0,0,225.1,137.9Zm0-6.7a2.9,2.9,0,1,1-2.9,2.9A2.9,2.9,0,0,1,225.1,131.2Z" transform="translate(-213.2 -123)"/></g></svg>