<svg id="Capa_1" data-name="Capa 1" xmlns="http://www.w3.org/2000/svg" viewBox="0 0 30.8 30.8"><defs><style>.cls-1{fill:#404040;}</style></defs><title>icon-review</title><g id="influence"><path class="cls-1" d="M238.5,182.8a1.5,1.5,0,0,0-1.5-1.6h-5a13.4,13.4,0,0,0,.5-4,4.3,4.3,0,0,0-1.2-2.7,1.3,1.3,0,0,0-2.2.3,0.5,0.5,0,0,0,0,.3,7.8,7.8,0,0,1,0,2.8,26.7,26.7,0,0,1-2.4,4.2h0a6.7,6.7,0,0,1-1.6,1.2h-1.5a0.5,0.5,0,0,0,0,1h1.8a6.7,6.7,0,0,0,2.2-1.7,26.8,26.8,0,0,0,2.6-4.5,8.2,8.2,0,0,0,0-3h0.2l0.4,0.2a3.4,3.4,0,0,1,.8,2.1,11.9,11.9,0,0,1-.6,4.2,0.5,0.5,0,0,0,0,.4l0.4,0.2H237a0.6,0.6,0,0,1,0,1.2h-0.7a0.5,0.5,0,0,0,0,1,0.6,0.6,0,0,1,.5.6,0.6,0.6,0,0,1-.5.6h-0.5a0.5,0.5,0,1,0,0,1,0.6,0.6,0,0,1,.5.6,0.6,0.6,0,0,1-.5.6h-0.5a0.5,0.5,0,1,0,0,1,0.6,0.6,0,0,1,.5.6,0.6,0.6,0,0,1-.5.6h-0.1c-2,.1-7.1.3-8.4-0.4a9.3,9.3,0,0,0-2.7-.2,0.5,0.5,0,0,0-.5.5,0.5,0.5,0,0,0,.5.5h2.2c0.9,0.5,3.2.6,5.3,0.6h3.9a1.5,1.5,0,0,0,1.2-1.5,1.6,1.6,0,0,0-.2-0.8,1.6,1.6,0,0,0,.7-1.4,1.6,1.6,0,0,0-.2-0.8,1.6,1.6,0,0,0,.7-1.4,1.6,1.6,0,0,0-.2-0.7A1.6,1.6,0,0,0,238.5,182.8Z" transform="translate(-213.2 -169.8)"/><path class="cls-1" d="M242,190a13.3,13.3,0,1,0-4.2,4.2l5.6,2h0.5a0.5,0.5,0,0,0,.1-0.5Zm-4.1,3.2h-0.4a12.3,12.3,0,1,1,3.6-3.6,0.5,0.5,0,0,0-.1.4l1.7,4.9Z" transform="translate(-213.2 -169.8)"/><path class="cls-1" d="M230.8,197.7h-0.2a10.3,10.3,0,0,1-11.6.3h-0.4l-4,1.4,1.4-4a0.5,0.5,0,0,0-.1-0.4,10.3,10.3,0,0,1,.3-11.6V183c0-.5,0-0.9.1-1.3a11.3,11.3,0,0,0-1.3,13.6l-1.7,4.7a0.5,0.5,0,0,0,.1.5h0.5l4.7-1.7a11.3,11.3,0,0,0,13.5-1.3h-1.3Z" transform="translate(-213.2 -169.8)"/></g></svg>